<svg id="Layer_1" data-name="Layer 1" xmlns="http://www.w3.org/2000/svg" viewBox="0 0 91 94"><defs><style>.cls-1{stroke:#000;}.cls-1,.cls-2,.cls-3{stroke-miterlimit:10;}.cls-2,.cls-3{stroke:#1a1818;}.cls-3{fill:#fff;}</style></defs><rect class="cls-1" x="0.5" y="0.5" width="90" height="93"/><path id="Path_554" data-name="Path 554" class="cls-2" d="M46.09,59.16"/><g id="Group_456" data-name="Group 456"><path id="Path_550" data-name="Path 550" class="cls-3" d="M50.08,36.28c.32.93,6.83,12.57,6.83,12.57l10.09-4L60.33,32.18Z"/></g><path id="Path_547" data-name="Path 547" class="cls-3" d="M23.33,42.45l-.22,5.38,7.74,16.92V59.06Z"/><path id="Path_548" data-name="Path 548" class="cls-3" d="M23.11,42.54,31,59.08l8.52-2.92,1.18-9.38-3,1.08L36.16,46l7.68-2.66-1,11.36L52.19,51,45.63,37,33.18,41.65l-1.54-2.46Z"/><path id="Path_549" data-name="Path 549" class="cls-3" d="M42.81,54.69,43.05,60l9.14-3.69V51Z"/><path id="Path_551" data-name="Path 551" class="cls-2" d="M60.07,32.1,59,29.68,31.64,39.19"/><path id="Path_552" data-name="Path 552" class="cls-3" d="M57.18,48.72,57,54l9.59-3.84L67,44.91Z"/><path id="Path_553" data-name="Path 553" class="cls-3" d="M50.23,37l-.15,4.6L57,54V49.16Z"/><path id="Path_555" data-name="Path 555" class="cls-3" d="M31,59.14l-.15,5.61,8.9-3-.14-5.85Z"/></svg>